<?xml version="1.0" encoding="utf-8"?>
<svg id="master-artboard" viewBox="0 0 1400 1400" version="1.1" xmlns="http://www.w3.org/2000/svg" x="0px" y="0px" width="1400px" height="1400px" enable-background="new 0 0 1400 1400"><rect id="ee-background" x="0" y="0" width="1400" height="1400" style="fill: rgb(190, 255, 92); fill-opacity: 1; pointer-events: none;"/>
<linearGradient id="SVGID_1_" gradientUnits="userSpaceOnUse" x1="100.3616" y1="1397.5022" x2="1448.3616" y2="-170.4978">
	<stop offset="0" style="stop-color:#062CA0"/>
	<stop offset="1" style="stop-color:#2674D2"/>
</linearGradient>
<path d="M 0 0 H 1400 V 1400 H 0 V 0 Z" fill="url(#SVGID_1_)"/>
<g transform="matrix(1, 0, 0, 1, -2.2464949098337, -4.492989819667457)">
	<path fill="#DBDBDB" d="M1097.2,1005.3L533.9,679.5c-15-8.6-39.2-8.7-54.1,0l-361,209.4c-14.9,8.6-14.8,22.7,0.1,31.3l290.3,167.9&#10;&#9;&#9;l0.9,0.5l36.7,21.2l0,0L682.3,1246c15,8.7,39.1,8.7,54,0l361-209.4C1112.2,1028,1112.1,1014,1097.2,1005.3z"/>
	<path fill="#C6C6C6" d="M1017.5,1015.5l-81.6-47.2L613.1,781.6l-96.7-56c-3.7-2.1-9.6-2.1-13.2,0L295.5,846.1&#10;&#9;&#9;c-3.6,2.1-3.6,5.5,0,7.6l71.1,41.2l352.1,203.7l77.9,45c3.6,2.1,9.5,2.1,13.1,0l207.7-120.5&#10;&#9;&#9;C1021.2,1021,1021.2,1017.6,1017.5,1015.5z"/>
	<path fill="#C6C6C6" d="M611.8,1054l-160.2-92.6l-0.7-0.4c-4.1-2.4-10.8-2.4-14.8-0.1l-96.1,55.7c-2,1.2-3.1,2.7-3,4.3&#10;&#9;&#9;c0,1.6,1.1,3.1,3.8,4.7l160.2,92.7c4.1,2.3,10.7,2.3,14.7,0l96.1-55.8c2-1.1,3.1-2.7,3-4.3C614.9,1056.6,613.8,1055.1,611.8,1054z"/>
	<g>
		<path d="M 559 786.4000244140625 L 578.7000122070312 775 L 547.4000244140625 757 L 527.7999877929688 768.4000244140625 Z" fill="#7F7F7F"/>
		<path d="M 492.6000061035156 789 L 523.9000244140625 807.0999755859375 L 553.7000122070312 789.7999877929688 L 522.5 771.7000122070312 Z" fill="#7F7F7F"/>
		<path d="M 526.9000244140625 848.0999755859375 L 555.2000122070312 864.5 L 583.4000244140625 848.2000122070312 L 555.0999755859375 831.7999877929688 Z" fill="#7F7F7F"/>
		<path d="M 768.7999877929688 907.7000122070312 L 788.4000244140625 896.2999877929688 L 757.2000122070312 878.2999877929688 L 737.5 889.7000122070312 Z" fill="#7F7F7F"/>
		<path d="M 687.0999755859375 940.7999877929688 L 715.4000244140625 957.2000122070312 L 743.5999755859375 940.7999877929688 L 715.2000122070312 924.5 Z" fill="#7F7F7F"/>
		<path d="M 873.7000122070312 968.4000244140625 L 893.2999877929688 957 L 862.0999755859375 939 L 842.4000244140625 950.4000244140625 Z" fill="#7F7F7F"/>
		<path d="M 908.7999877929688 988.7000122070312 L 928.4000244140625 977.2999877929688 L 897.2000122070312 959.2000122070312 L 877.5 970.5999755859375 Z" fill="#7F7F7F"/>
		<path d="M 817.9000244140625 1023.5999755859375 L 789.5 1007.2000122070312 L 761.4000244140625 1023.5 L 789.7000122070312 1039.9000244140625 Z" fill="#7F7F7F"/>
		<path d="M 622.7999877929688 903.5999755859375 L 651.0999755859375 920 L 679.2999877929688 903.5999755859375 L 650.9000244140625 887.2000122070312 Z" fill="#7F7F7F"/>
		<path d="M 497.6000061035156 919.5999755859375 L 465.70001220703125 938.0999755859375 L 660.7999877929688 1051 L 692.7000122070312 1032.5 Z" fill="#7F7F7F"/>
		<path d="M 594 806.5999755859375 L 613.5999755859375 795.2000122070312 L 582.4000244140625 777.2000122070312 L 562.7000122070312 788.5999755859375 Z" fill="#7F7F7F"/>
		<path d="M 698.9000244140625 867.2999877929688 L 718.5999755859375 855.9000244140625 L 687.2999877929688 837.9000244140625 L 667.7000122070312 849.2999877929688 Z" fill="#7F7F7F"/>
		<path d="M 347.29998779296875 832.7000122070312 L 315.3999938964844 851.2000122070312 L 348.1000061035156 870.0999755859375 L 379.8999938964844 851.5999755859375 Z" fill="#7F7F7F"/>
		<path d="M 466.5 860.5 L 382.70001220703125 812 L 354.5 828.4000244140625 L 438.29998779296875 876.7999877929688 Z" fill="#7F7F7F"/>
		<path d="M 559 866.7000122070312 L 587.2999877929688 883.0999755859375 L 615.5 866.7000122070312 L 587.2000122070312 850.4000244140625 Z" fill="#7F7F7F"/>
		<path d="M 527.4000244140625 888.2000122070312 L 555.5999755859375 871.9000244140625 L 527.2999877929688 855.5 L 499.1000061035156 871.7999877929688 Z" fill="#7F7F7F"/>
		<path d="M 591.0999755859375 885.2999877929688 L 619.4000244140625 901.5999755859375 L 647.5 885.2999877929688 L 619.2000122070312 868.9000244140625 Z" fill="#7F7F7F"/>
		<path d="M 588.2999877929688 890.7999877929688 L 559.9000244140625 874.4000244140625 L 531.7999877929688 890.7000122070312 L 560.0999755859375 907.0999755859375 Z" fill="#7F7F7F"/>
		<path d="M 667.4000244140625 890.0999755859375 L 698.7000122070312 908.2000122070312 L 728.5 890.9000244140625 L 697.2999877929688 872.7999877929688 Z" fill="#7F7F7F"/>
		<path d="M 534.2999877929688 899.7000122070312 L 504.70001220703125 882.5999755859375 L 476.6000061035156 899 L 506.1000061035156 916.0999755859375 Z" fill="#7F7F7F"/>
		<path d="M 566.7000122070312 918.5 L 537.2000122070312 901.4000244140625 L 509 917.7000122070312 L 538.5999755859375 934.7999877929688 Z" fill="#7F7F7F"/>
		<path d="M 653.7000122070312 928.5999755859375 L 625.2999877929688 912.2000122070312 L 597.2000122070312 928.5 L 625.5 944.9000244140625 Z" fill="#7F7F7F"/>
		<path d="M 737.5999755859375 930.7999877929688 L 768.9000244140625 948.9000244140625 L 798.7999877929688 931.5 L 767.5 913.4000244140625 Z" fill="#7F7F7F"/>
		<path d="M 808.5 978.4000244140625 L 780.2000122070312 962 L 752 978.4000244140625 L 780.4000244140625 994.7999877929688 Z" fill="#7F7F7F"/>
		<path d="M 784.0999755859375 996.9000244140625 L 812.4000244140625 1013.2999877929688 L 840.5999755859375 996.9000244140625 L 812.2999877929688 980.5999755859375 Z" fill="#7F7F7F"/>
		<path d="M 784.7999877929688 1004.4000244140625 L 756.5 988 L 728.2999877929688 1004.4000244140625 L 756.5999755859375 1020.7999877929688 Z" fill="#7F7F7F"/>
		<path d="M 904.9000244140625 1034.0999755859375 L 876.5999755859375 1017.7999877929688 L 848.4000244140625 1034.0999755859375 L 876.7000122070312 1050.5 Z" fill="#7F7F7F"/>
		<path d="M 794.7999877929688 1050.4000244140625 L 765.2000122070312 1033.300048828125 L 737.0999755859375 1049.5999755859375 L 766.5999755859375 1066.699951171875 Z" fill="#7F7F7F"/>
		<path d="M 697.0999755859375 1035 L 665.2000122070312 1053.5 L 697.7999877929688 1072.4000244140625 L 729.7000122070312 1053.9000244140625 Z" fill="#7F7F7F"/>
		<path d="M 828.2999877929688 1062.199951171875 L 875 1089.199951171875 L 903.2000122070312 1072.9000244140625 L 856.4000244140625 1045.9000244140625 Z" fill="#7F7F7F"/>
		<path d="M 734.2000122070312 1056.4000244140625 L 702.2999877929688 1075 L 734.9000244140625 1093.800048828125 L 766.7999877929688 1075.300048828125 Z" fill="#7F7F7F"/>
		<path d="M 811.5999755859375 1101.300048828125 L 792.2000122070312 1090 L 777 1098.800048828125 L 796.5 1110.0999755859375 Z" fill="#7F7F7F"/>
		<path d="M 775.5 1099.699951171875 L 760.2999877929688 1108.5 L 779.7999877929688 1119.800048828125 L 794.9000244140625 1111 Z" fill="#7F7F7F"/>
		<path d="M 543.7999877929688 754.7999877929688 L 512.5 736.7999877929688 L 492.8999938964844 748.2000122070312 L 524.0999755859375 766.2000122070312 Z" fill="#7F7F7F"/>
		<path d="M 518.5999755859375 769.4000244140625 L 487.29998779296875 751.4000244140625 L 457.3999938964844 768.7000122070312 L 488.70001220703125 786.7999877929688 Z" fill="#7F7F7F"/>
		<path d="M 515.5 808.9000244140625 L 451.70001220703125 772 L 423.5 788.2999877929688 L 487.29998779296875 825.2000122070312 Z" fill="#7F7F7F"/>
		<path d="M 628.9000244140625 826.7999877929688 L 648.5999755859375 815.4000244140625 L 617.2999877929688 797.4000244140625 L 597.7000122070312 808.7999877929688 Z" fill="#7F7F7F"/>
		<path d="M 527.4000244140625 809.2000122070312 L 558.7000122070312 827.2999877929688 L 588.5999755859375 810 L 557.2999877929688 791.9000244140625 Z" fill="#7F7F7F"/>
		<path d="M 523.2000122070312 846 L 551.2999877929688 829.5999755859375 L 523 813.2999877929688 L 494.8999938964844 829.5999755859375 Z" fill="#7F7F7F"/>
		<path d="M 664 847.0999755859375 L 683.7000122070312 835.7000122070312 L 652.4000244140625 817.7000122070312 L 632.7999877929688 829.0999755859375 Z" fill="#7F7F7F"/>
		<path d="M 562.5999755859375 829.5 L 593.9000244140625 847.5999755859375 L 623.7999877929688 830.2999877929688 L 592.5 812.2000122070312 Z" fill="#7F7F7F"/>
		<path d="M 488.70001220703125 833.2000122070312 L 417.3999938964844 791.9000244140625 L 389.20001220703125 808.2999877929688 L 460.5 849.5 Z" fill="#7F7F7F"/>
		<path d="M 597.0999755859375 849.5 L 628.4000244140625 867.5999755859375 L 658.2999877929688 850.2999877929688 L 627 832.2000122070312 Z" fill="#7F7F7F"/>
		<path d="M 466.3999938964844 852.9000244140625 L 494.70001220703125 869.2999877929688 L 522.9000244140625 853 L 494.6000061035156 836.5999755859375 Z" fill="#7F7F7F"/>
		<path d="M 733.7999877929688 887.5 L 753.5 876.0999755859375 L 722.2999877929688 858.0999755859375 L 702.5999755859375 869.5 Z" fill="#7F7F7F"/>
		<path d="M 632.2999877929688 869.9000244140625 L 663.5999755859375 888 L 693.5 870.5999755859375 L 662.2000122070312 852.5 Z" fill="#7F7F7F"/>
		<path d="M 384.70001220703125 854.2999877929688 L 352.79998779296875 872.7999877929688 L 385.3999938964844 891.7000122070312 L 417.3999938964844 873.2000122070312 Z" fill="#7F7F7F"/>
		<path d="M 473.5 897.2000122070312 L 501.70001220703125 880.9000244140625 L 472.1000061035156 863.7000122070312 L 443.8999938964844 880.0999755859375 Z" fill="#7F7F7F"/>
		<path d="M 422.29998779296875 876.0999755859375 L 390.3999938964844 894.5999755859375 L 423.1000061035156 913.5 L 455 895 Z" fill="#7F7F7F"/>
		<path d="M 620.9000244140625 909.5999755859375 L 592.5999755859375 893.2999877929688 L 564.4000244140625 909.5999755859375 L 592.7999877929688 926 Z" fill="#7F7F7F"/>
		<path d="M 803.7000122070312 928 L 823.4000244140625 916.5 L 792.0999755859375 898.5 L 772.5 909.9000244140625 Z" fill="#7F7F7F"/>
		<path d="M 702.5999755859375 910.5 L 733.9000244140625 928.5999755859375 L 763.7000122070312 911.2999877929688 L 732.5 893.2000122070312 Z" fill="#7F7F7F"/>
		<path d="M 459.70001220703125 897.7000122070312 L 427.79998779296875 916.2000122070312 L 460.5 935.0999755859375 L 492.3999938964844 916.5999755859375 Z" fill="#7F7F7F"/>
		<path d="M 654.7999877929688 922.0999755859375 L 683.0999755859375 938.5 L 711.2999877929688 922.2000122070312 L 683 905.7999877929688 Z" fill="#7F7F7F"/>
		<path d="M 838.7000122070312 948.2000122070312 L 858.4000244140625 936.7999877929688 L 827.0999755859375 918.7000122070312 L 807.5 930.0999755859375 Z" fill="#7F7F7F"/>
		<path d="M 599.5999755859375 937.5 L 570.0999755859375 920.4000244140625 L 541.9000244140625 936.7000122070312 L 571.5 953.7999877929688 Z" fill="#7F7F7F"/>
		<path d="M 686.2999877929688 947.5 L 658 931.0999755859375 L 629.7999877929688 947.4000244140625 L 658.0999755859375 963.7999877929688 Z" fill="#7F7F7F"/>
		<path d="M 772.7999877929688 951.0999755859375 L 804.0999755859375 969.2000122070312 L 834 951.9000244140625 L 802.7000122070312 933.7999877929688 Z" fill="#7F7F7F"/>
		<path d="M 632 956.2000122070312 L 602.5 939.0999755859375 L 574.2999877929688 955.5 L 603.9000244140625 972.5999755859375 Z" fill="#7F7F7F"/>
		<path d="M 719.0999755859375 959.2999877929688 L 747.5 975.7000122070312 L 775.5999755859375 959.4000244140625 L 747.2999877929688 943 Z" fill="#7F7F7F"/>
		<path d="M 719.4000244140625 966.5999755859375 L 691.0999755859375 950.2000122070312 L 662.9000244140625 966.5999755859375 L 691.2000122070312 982.9000244140625 Z" fill="#7F7F7F"/>
		<path d="M 837.2000122070312 953.7000122070312 L 807.2999877929688 971.0999755859375 L 838.5999755859375 989.2000122070312 L 868.5 971.7999877929688 Z" fill="#7F7F7F"/>
		<path d="M 664.7000122070312 975.0999755859375 L 635.0999755859375 958 L 606.9000244140625 974.4000244140625 L 636.5 991.5 Z" fill="#7F7F7F"/>
		<path d="M 752.0999755859375 985.5 L 723.7999877929688 969.0999755859375 L 695.5999755859375 985.5 L 724 1001.9000244140625 Z" fill="#7F7F7F"/>
		<path d="M 943.7000122070312 1008.9000244140625 L 963.4000244140625 997.5 L 932.0999755859375 979.5 L 912.5 990.9000244140625 Z" fill="#7F7F7F"/>
		<path d="M 872.4000244140625 974.0999755859375 L 842.5 991.4000244140625 L 873.7999877929688 1009.5 L 903.7000122070312 992.2000122070312 Z" fill="#7F7F7F"/>
		<path d="M 697.0999755859375 993.9000244140625 L 667.5 976.7999877929688 L 639.2999877929688 993.0999755859375 L 668.9000244140625 1010.2000122070312 Z" fill="#7F7F7F"/>
		<path d="M 967.0999755859375 999.7000122070312 L 947.4000244140625 1011.0999755859375 L 978.5999755859375 1029.0999755859375 L 998.2999877929688 1017.7000122070312 Z" fill="#7F7F7F"/>
		<path d="M 729.7000122070312 1012.7999877929688 L 700.2000122070312 995.7000122070312 L 672 1012 L 701.5999755859375 1029.0999755859375 Z" fill="#7F7F7F"/>
		<path d="M 872.7999877929688 1015.5999755859375 L 844.5 999.2000122070312 L 816.2999877929688 1015.5999755859375 L 844.7000122070312 1031.9000244140625 Z" fill="#7F7F7F"/>
		<path d="M 762.0999755859375 1031.5 L 732.5999755859375 1014.4000244140625 L 704.4000244140625 1030.699951171875 L 734 1047.800048828125 Z" fill="#7F7F7F"/>
		<path d="M 878.0999755859375 1012 L 943.2000122070312 1049.699951171875 L 973.0999755859375 1032.300048828125 L 908 994.7000122070312 Z" fill="#7F7F7F"/>
		<path d="M 850.5 1042.4000244140625 L 822.2000122070312 1026 L 794 1042.4000244140625 L 822.2999877929688 1058.800048828125 Z" fill="#7F7F7F"/>
		<path d="M 881 1053 L 909.2999877929688 1069.300048828125 L 937.5 1053 L 909.2000122070312 1036.5999755859375 Z" fill="#7F7F7F"/>
		<path d="M 754.0999755859375 1087.4000244140625 L 738.9000244140625 1096.199951171875 L 758.4000244140625 1107.4000244140625 L 773.5999755859375 1098.5999755859375 Z" fill="#7F7F7F"/>
		<path d="M 774.0999755859375 1071.0999755859375 L 840.2999877929688 1109.4000244140625 L 868.5 1093 L 802.2999877929688 1054.699951171875 Z" fill="#7F7F7F"/>
		<path d="M 781.5999755859375 1120.9000244140625 L 801.0999755859375 1132.0999755859375 L 816.2999877929688 1123.300048828125 L 796.7999877929688 1112.0999755859375 Z" fill="#7F7F7F"/>
	</g>
	<path fill="#C1C1C1" d="M1127.2,565.4c0.1-17.2-12-38.2-27-46.8L536.4,192.5c-15-8.7-27.2-1.7-27.2,15.5l-1.5,416.9&#10;&#9;&#9;c0,0.5,0,1,0,1.5l0,8c0,17.2,12,38.2,27,46.8l563.8,326.1c15,8.6,27.2,1.7,27.2-15.5l1.5-416.9c0-0.5,0-1.1,0-1.6L1127.2,565.4z"/>
	<linearGradient id="SVGID_2_" gradientUnits="userSpaceOnUse" x1="1071.1112" y1="520.6129" x2="448.0248" y2="719.6363">
		<stop offset="0" style="stop-color:#062CA0"/>
		<stop offset="1" style="stop-color:#2674D2"/>
	</linearGradient>
	<path fill="url(#SVGID_2_)" d="M1084.7,553.8L560.3,251.1c-6.1-3.5-13.8,0.9-13.9,8l-1.1,374.7l0,0l0,7.7c0,3.3,1.8,6.4,4.6,8&#10;&#9;&#9;l524.4,302.8c6.1,3.5,13.8-0.9,13.9-8l1.1-374.7l0,0l0-7.7C1089.4,558.5,1087.6,555.5,1084.7,553.8z"/>
	<path fill="#474A52" d="M826.8,378.6l-15.9-9.2c-2.5-1.5-4.6-0.3-4.6,2.6c0,2.9,2,6.4,4.6,7.9l15.9,9.2c2.5,1.5,4.6,0.3,4.6-2.6&#10;&#9;&#9;C831.4,383.6,829.3,380,826.8,378.6z"/>
	<path fill="#848484" d="M1135.3,560.7c0.1-17.2-12-38.2-27-46.8L544.5,187.8c-7.5-4.4-14.4-4.8-19.3-1.9c-2.3,1.3-4.6,2.7-6.9,4&#10;&#9;&#9;l0,0.1c4.8-2.2,11.2-1.5,18.1,2.5l563.8,326.1c15,8.6,27.1,29.6,27,46.8l0,8c0,0.5,0,1.1,0,1.6l-1.5,416.9c0,9-3.4,15.2-8.8,17.8&#10;&#9;&#9;l0.1,0c3-1.7,5.9-3.4,8.9-5.2c4.9-2.8,7.9-8.8,7.9-17.3l1.5-416.9c0-0.5,0-1.1,0-1.6L1135.3,560.7z"/>
	<g>
		<path fill="#B5B5B5" d="M364.7,1056.6l82.1,47.5c2.7,1.6,2.8,4.1,0,5.7l-36.7-21.2l-55.3-32C357.5,1055,361.9,1055,364.7,1056.6z"/>
	</g>
	<path fill="#A8A8A8" d="M1108.4,1022.2c-0.1,1.6-0.6,3.2-1.3,4.7c0,0.1-0.1,0.1-0.1,0.2c-0.1,0.2-0.2,0.5-0.4,0.7&#10;&#9;&#9;c-0.1,0.1-0.1,0.2-0.2,0.3c-0.1,0.2-0.3,0.4-0.4,0.6c-0.1,0.1-0.1,0.2-0.2,0.3c-0.1,0.2-0.3,0.4-0.4,0.6c-0.1,0.1-0.2,0.3-0.3,0.4&#10;&#9;&#9;c-0.1,0.2-0.3,0.4-0.4,0.5c-0.1,0.1-0.2,0.3-0.4,0.4c-0.1,0.2-0.3,0.3-0.5,0.5c-0.1,0.1-0.3,0.3-0.4,0.4c-0.2,0.2-0.3,0.3-0.5,0.5&#10;&#9;&#9;c-0.2,0.2-0.3,0.3-0.5,0.4c-0.2,0.1-0.3,0.3-0.5,0.4c-0.2,0.2-0.4,0.3-0.6,0.5c-0.2,0.1-0.3,0.3-0.5,0.4c-0.2,0.2-0.4,0.3-0.6,0.5&#10;&#9;&#9;c-0.2,0.1-0.3,0.2-0.5,0.4c-0.3,0.2-0.5,0.4-0.8,0.5c-0.1,0.1-0.3,0.2-0.4,0.3c-0.4,0.3-0.8,0.5-1.3,0.8c0,0,0,0,0,0l-361,209.4&#10;&#9;&#9;c-7.9,4.6-18.4,6.7-28.8,6.4c0,0-0.1,0-0.1,0c-1.2,0-2.3-0.1-3.4-0.2c-0.7-0.1-1.4-0.1-2.1-0.2c-1.1-0.1-2.3-0.3-3.4-0.5&#10;&#9;&#9;c-1.3-0.2-2.6-0.5-3.9-0.8c-2.7-0.7-5.3-1.5-7.8-2.6c-1.5-0.7-3-1.4-4.4-2.2l-235.5-136.2l0,0l0,0l-36.7-21.2l-0.9-0.5L119,920.2&#10;&#9;&#9;c-0.6-0.3-1.2-0.7-1.7-1.1c-0.1-0.1-0.3-0.2-0.4-0.3c-0.4-0.3-0.9-0.6-1.3-0.9c-0.1-0.1-0.2-0.1-0.3-0.2c-0.5-0.4-0.9-0.8-1.4-1.2&#10;&#9;&#9;c-0.1-0.1-0.2-0.2-0.3-0.3c-0.4-0.3-0.7-0.7-1-1c-0.1-0.1-0.2-0.2-0.3-0.3c-0.4-0.4-0.7-0.8-1.1-1.2c0-0.1-0.1-0.1-0.1-0.2&#10;&#9;&#9;c-0.3-0.4-0.6-0.8-0.8-1.1c-0.1-0.1-0.1-0.2-0.2-0.3c-0.6-0.9-1-1.8-1.4-2.7c0-0.1-0.1-0.2-0.1-0.3c-0.2-0.4-0.3-0.8-0.4-1.3&#10;&#9;&#9;c0,0,0-0.1,0-0.1c-0.1-0.5-0.2-0.9-0.3-1.4c0-0.1,0-0.1,0-0.2c-0.1-0.4-0.1-0.9-0.1-1.3c0-0.1,0-0.1,0-0.2c0-0.1,0-0.2,0-0.3h0l0,0&#10;&#9;&#9;v12.1c0.5,5.3,4.2,10.4,11.2,14.4L410,1099.4l0,0v0l36.7,21.2l235.5,136.2c0.9,0.5,1.8,1,2.8,1.5c0.4,0.2,0.7,0.3,1.1,0.5&#10;&#9;&#9;c0.6,0.2,1.1,0.5,1.7,0.7c0.1,0,0.1,0,0.2,0.1c1.3,0.5,2.7,1,4.1,1.4c0.1,0,0.2,0.1,0.4,0.1c0.3,0.1,0.7,0.2,1,0.2&#10;&#9;&#9;c0.8,0.2,1.5,0.4,2.3,0.6c0.2,0,0.4,0.1,0.7,0.2c0.3,0.1,0.6,0.1,0.9,0.2c0.7,0.1,1.3,0.2,2,0.4c0.3,0,0.6,0.1,0.8,0.1&#10;&#9;&#9;c0.3,0,0.6,0.1,0.9,0.1c0.6,0.1,1.3,0.2,1.9,0.2c0.3,0,0.6,0.1,0.9,0.1c0.3,0,0.5,0,0.8,0c0.7,0,1.3,0.1,2,0.1c0.3,0,0.6,0,1,0.1&#10;&#9;&#9;c0.2,0,0.5,0,0.7,0c0.7,0,1.5,0,2.2,0c0.3,0,0.7,0,1,0c0.2,0,0.4,0,0.5,0c0.9,0,1.9-0.1,2.8-0.2c0.3,0,0.6,0,0.9-0.1&#10;&#9;&#9;c0.1,0,0.2,0,0.3,0c1.5-0.2,2.9-0.3,4.4-0.6c0.1,0,0.2,0,0.2,0c0.4-0.1,0.8-0.2,1.3-0.3c0.7-0.1,1.4-0.3,2.1-0.4&#10;&#9;&#9;c0.5-0.1,1-0.3,1.5-0.4c0.7-0.2,1.4-0.4,2-0.6c0.1,0,0.3-0.1,0.4-0.1c0.2-0.1,0.4-0.2,0.6-0.2c1-0.4,2-0.7,3-1.1&#10;&#9;&#9;c0.4-0.2,0.7-0.3,1.1-0.5c1.2-0.6,2.5-1.1,3.6-1.8l361-209.4c0.2-0.1,0.3-0.2,0.5-0.3c0.3-0.2,0.6-0.4,1-0.6c0.5-0.3,1-0.6,1.4-0.9&#10;&#9;&#9;c0.4-0.3,0.7-0.5,1-0.8c0.4-0.3,0.8-0.7,1.2-1c0.1-0.1,0.2-0.1,0.2-0.2c0.1-0.1,0.2-0.3,0.4-0.4c0.6-0.6,1.1-1.2,1.6-1.8&#10;&#9;&#9;c0.1-0.1,0.2-0.2,0.3-0.4c0.1-0.1,0.2-0.3,0.2-0.4c0.3-0.4,0.6-0.9,0.9-1.3c0.1-0.2,0.3-0.4,0.4-0.6c0.1-0.1,0.1-0.2,0.1-0.3&#10;&#9;&#9;c0.2-0.4,0.4-0.8,0.5-1.2c0.1-0.2,0.2-0.5,0.3-0.7c0-0.1,0-0.2,0.1-0.2c0.1-0.4,0.2-0.7,0.3-1.1c0.1-0.3,0.2-0.5,0.2-0.8&#10;&#9;&#9;c0-0.1,0-0.1,0-0.2c0.1-0.4,0.1-0.8,0.1-1.1c0-0.3,0.1-0.6,0.1-0.8c0-0.1,0-0.2,0-0.3C1108.3,1028.7,1108.4,1025.5,1108.4,1022.2&#10;&#9;&#9;C1108.4,1022.2,1108.4,1022.2,1108.4,1022.2z"/>
	<g>
		<path fill="#46B3E1" d="M918.2,614.5c4.9,2.9,9.4,8.8,11.3,15.2l2.4,7.8c1.9,6.4,6.4,12.3,11.3,15.2l59.9,34.6&#10;&#9;&#9;&#9;c6.8,3.9,12.3,13.5,12.3,21.3l-0.3,98.7c0,7.8-5.6,11-12.4,7l-154.6-89.3c-6.8-3.9-12.3-13.5-12.3-21.3l0.3-111.5&#10;&#9;&#9;&#9;c0-1.9,0.3-3.6,1-4.9l4.1-8.7c1.9-4.1,6.4-5,11.4-2.1L918.2,614.5z"/>
	</g>
	<g>
		<path fill="#57D8F9" d="M664.3,480.3c25,14.4,45.3,2.8,45.4-25.9c0.1-28.7-20.1-63.7-45.1-78.1c-25-14.4-45.3-2.8-45.4,25.9&#10;&#9;&#9;&#9;C619.2,430.9,639.3,465.9,664.3,480.3z"/>
		<path fill="#57D8F9" d="M608.3,541.5c-1.9-1.1-3.5-0.2-3.5,2c0,2.2,1.6,4.9,3.5,6c1.9,1.1,3.5,0.2,3.5-2&#10;&#9;&#9;&#9;C611.8,545.3,610.3,542.6,608.3,541.5z"/>
		<path fill="#57D8F9" d="M622.3,549.6c-1.9-1.1-3.5-0.2-3.5,2s1.6,4.9,3.5,6c1.9,1.1,3.5,0.2,3.5-2&#10;&#9;&#9;&#9;C625.8,553.4,624.3,550.7,622.3,549.6z"/>
		<path fill="#57D8F9" d="M727.9,537.7l-127.3-73.5c-3-1.8-5.5-0.3-5.5,3.2l-0.1,21.2c0,3.5,2.5,7.8,5.5,9.5l127.3,73.5&#10;&#9;&#9;&#9;c3,1.8,5.5,0.3,5.5-3.2l0.1-21.2C733.4,543.7,731,539.4,727.9,537.7z M732.1,567.7c0,2.7-1.9,3.8-4.3,2.5l-127.3-73.5&#10;&#9;&#9;&#9;c-2.4-1.4-4.3-4.7-4.3-7.4l0.1-21.2c0-2.7,1.9-3.8,4.3-2.4l127.3,73.5c2.4,1.4,4.3,4.7,4.3,7.4L732.1,567.7z"/>
		<path fill="#57D8F9" d="M685.2,632.6l-42.5-24.5c-2.1-1.2-3.8-0.2-3.8,2.2l0,11.7c0,2.4,1.7,5.4,3.8,6.6l42.5,24.5&#10;&#9;&#9;&#9;c2.1,1.2,3.8,0.2,3.8-2.2l0-11.7C689,636.8,687.3,633.8,685.2,632.6z"/>
		<path fill="#57D8F9" d="M664.4,573.9c-1.9-1.1-3.5-0.2-3.5,2c0,2.2,1.6,4.9,3.5,6c1.9,1.1,3.5,0.2,3.5-2&#10;&#9;&#9;&#9;C667.9,577.7,666.3,575,664.4,573.9z"/>
		<path fill="#57D8F9" d="M727.7,597.5L600.4,524c-3-1.8-5.5-0.3-5.5,3.2l-0.1,21.2c0,3.5,2.5,7.8,5.5,9.5l127.3,73.5&#10;&#9;&#9;&#9;c3,1.8,5.5,0.3,5.5-3.2l0.1-21.2C733.2,603.6,730.8,599.3,727.7,597.5z M731.9,627.5c0,2.7-1.9,3.8-4.3,2.4l-127.3-73.5&#10;&#9;&#9;&#9;c-2.4-1.4-4.3-4.7-4.3-7.4l0.1-21.2c0-2.7,1.9-3.8,4.3-2.5l127.3,73.5c2.4,1.4,4.3,4.7,4.3,7.4L731.9,627.5z"/>
		<path fill="#57D8F9" d="M738.2,395.5l-147.1-84.9c-5.6-3.2-10.2-0.6-10.2,5.8l-0.8,290.4c0,6.4,4.5,14.3,10.1,17.6l147.1,84.9&#10;&#9;&#9;&#9;c5.6,3.2,10.2,0.6,10.2-5.8l0.8-290.4C748.4,406.6,743.8,398.8,738.2,395.5z M746.3,702.8c0,5.7-4,7.9-9,5.1l-147.1-84.9&#10;&#9;&#9;&#9;c-4.9-2.8-8.9-9.8-8.9-15.4l0.8-290.4c0-5.7,4-8,9-5.1l147.1,84.9c4.9,2.8,8.9,9.8,8.9,15.4L746.3,702.8z"/>
		<path fill="#57D8F9" d="M636.3,557.7c-1.9-1.1-3.5-0.2-3.5,2c0,2.2,1.6,4.9,3.5,6c1.9,1.1,3.5,0.2,3.5-2&#10;&#9;&#9;&#9;C639.8,561.5,638.3,558.8,636.3,557.7z"/>
		<path fill="#57D8F9" d="M650.3,565.8c-1.9-1.1-3.5-0.2-3.5,2c0,2.2,1.6,4.9,3.5,6s3.5,0.2,3.5-2&#10;&#9;&#9;&#9;C653.8,569.6,652.3,566.9,650.3,565.8z"/>
	</g>
	<g>
		<path fill="#236DE0" d="M472.9,798.1c-24,14-63.1,14-87.3,0L220,702.5c-12.2-7-18.2-16.2-18.2-25.5l-0.6,224&#10;&#9;&#9;&#9;c0,9.2,6.1,18.4,18.2,25.5l165.6,95.6c24.2,14,63.2,14,87.3,0c11.9-6.9,17.9-16,17.9-25.1l0.6-224&#10;&#9;&#9;&#9;C490.8,782.1,484.8,791.2,472.9,798.1z"/>
		<g>
			<path fill="#4498F3" d="M472.6,747.6c24.2,14,24.3,36.6,0.3,50.5c-24,14-63.1,14-87.3,0L220,702.5c-24.2-14-24.3-36.6-0.3-50.5&#10;&#9;&#9;&#9;&#9;c24-14,63.1-14,87.3,0L472.6,747.6z"/>
		</g>
		<path fill="#002593" d="M445.9,682.3c0.2-55.4-38.9-123.1-87.1-150.9c-24.3-14-46.3-15.3-62.2-6l-24.2,14.1c0.1,0,0.1-0.1,0.2-0.1&#10;&#9;&#9;&#9;c-15.8,9.1-25.6,28.5-25.7,56.1l-0.2,84.8c0,0,0,0,0,0.1l0,0.4h0c0.2,3.2,2.4,6.3,6.6,8.7c8.7,5,22.9,5,31.6,0&#10;&#9;&#9;&#9;c4.2-2.4,6.3-5.5,6.5-8.7h0l0-0.3c0-0.1,0-0.2,0-0.2l0.2-87c0-0.1,0-0.3,0-0.4c0.2-21.5,23.5-34.8,42.2-24.3&#10;&#9;&#9;&#9;c0.3,0.2,0.5,0.3,0.8,0.5c36.9,21.3,66.9,73.2,66.7,115.6l-0.2,85.3h0c0.1,3.3,2.3,6.5,6.6,9c8.7,5,22.9,5,31.6,0&#10;&#9;&#9;&#9;c4.4-2.5,6.5-5.9,6.5-9.2L445.9,682.3z"/>
		<g>
			<path fill="#002593" d="M312.9,803.9c13.3,7.7,24,26.3,24,41.6c0,8.5-3.4,14.2-8.7,16.2l4.9,81.1L291.9,919l5.4-75.1&#10;&#9;&#9;&#9;&#9;c-5.3-8.1-8.6-17.7-8.6-26.2C288.7,802.3,299.6,796.2,312.9,803.9z"/>
		</g>
	</g>
	<g>
		<g>
			<path fill="#1650B9" d="M855.1,775.6c0,0,43.1,84.4,168,156.5l-0.2,69.8l-0.1,47.8c-0.3,105.9-44.1,180.9-118.8,200&#10;&#9;&#9;&#9;&#9;c-15.9,4.1-32.7,5.7-50.3,3.5c-17.5-18-34.3-39-50.1-61.4c-74.4-105.2-117.6-230.4-117.3-336.3l0.1-47.8l0.2-69.8&#10;&#9;&#9;&#9;&#9;C811.7,810,855.1,775.6,855.1,775.6z"/>
		</g>
		<path fill="#4499F3" d="M882.6,759.7l-3.8,2.2c-13,6.3-60.6,20.1-164.5-40l-27.4,15.9c110.9,64.1,157.6,44.1,166.7,38.8l1.7-1&#10;&#9;&#9;&#9;c1.5,2.9,45.3,85.6,168,156.4l27.4-15.9C925.7,844,882.6,759.7,882.6,759.7z"/>
		<path fill="#2037AF" d="M1023.2,932.1l-0.2,69.8l-0.1,47.8c-0.2,88.1-30.6,154.8-83.8,185.7l27.4-15.9&#10;&#9;&#9;&#9;c53.2-30.9,83.6-97.7,83.8-185.7l0.1-47.8l0.2-69.8L1023.2,932.1z"/>
		<g>
			<path fill="#0A30A4" d="M855.1,825c0,0,34.8,68.1,135.6,126.3l-0.2,56.3l-0.1,38.6c-0.2,85.4-35.6,146-95.9,161.4&#10;&#9;&#9;&#9;&#9;c-12.8,3.3-26.4,4.6-40.6,2.8c-14.1-14.5-27.7-31.5-40.4-49.5c-60-84.9-94.9-186-94.7-271.4l0.1-38.6l0.2-56.3&#10;&#9;&#9;&#9;&#9;C820,852.7,855.1,825,855.1,825z"/>
		</g>
		<linearGradient id="SVGID_3_" gradientUnits="userSpaceOnUse" x1="833.4742" y1="1368.7905" x2="926.9297" y2="927.7975">
			<stop offset="0" style="stop-color:#061D61"/>
			<stop offset="0.9949" style="stop-color:#0A30A4"/>
		</linearGradient>
		<path fill="url(#SVGID_3_)" d="M894.5,1207.6c60.3-15.4,95.6-76,95.9-161.4l0.1-38.6l0.2-56.3C889.9,893.1,855.1,825,855.1,825&#10;&#9;&#9;&#9;c0,0-0.4,0.3-1.1,0.7v384.7C868.1,1212.2,881.7,1210.9,894.5,1207.6z"/>
	</g>
	<g>
		<path fill="#6586CC" d="M662.2,298.7l-273-157.6c-7.4-4.3-13.4-0.8-13.4,7.7l-0.2,68.2c0,8.5,6,18.9,13.4,23.1l273,157.6&#10;&#9;&#9;&#9;c7.4,4.3,13.4,0.8,13.5-7.7l0.2-68.2C675.6,313.4,669.6,303,662.2,298.7z"/>
		<path fill="#B1D5EC" d="M666.6,296.2l-273-157.6c-3.7-2.2-7.1-2.4-9.5-0.9l-4.4,2.6c2.4-1.4,5.8-1.2,9.5,0.9l273,157.6&#10;&#9;&#9;&#9;c7.4,4.3,13.4,14.6,13.4,23.1l-0.2,68.2c0,4.2-1.5,7.2-3.9,8.6l4.4-2.6c2.4-1.4,3.9-4.4,3.9-8.6l0.2-68.2&#10;&#9;&#9;&#9;C680,310.8,674,300.4,666.6,296.2z"/>
		<g>
			<path fill="#4C74C2" d="M448.5,191.8c4.6,2.6,8.3,9.1,8.3,14.3l-0.1,47.2c0,5.3-3.7,7.4-8.3,4.7l-47.1-27.2&#10;&#9;&#9;&#9;&#9;c-4.6-2.6-8.3-9.1-8.3-14.3l0.1-47.2c0-5.3,3.7-7.4,8.3-4.7L448.5,191.8z"/>
		</g>
		<g>
			<path fill="#B1D5EC" d="M652.6,363.2c3.1,1.8,5.5,6.1,5.5,9.6c0,3.5-2.5,4.9-5.6,3.2L473.4,272.5c-3.1-1.8-5.5-6.1-5.5-9.6&#10;&#9;&#9;&#9;&#9;s2.5-4.9,5.6-3.2L652.6,363.2z"/>
		</g>
		<g>
			<path fill="#B1D5EC" d="M652.7,336.4c3.1,1.8,5.5,6.1,5.5,9.6s-2.5,4.9-5.6,3.2L473.5,245.8c-3.1-1.8-5.5-6.1-5.5-9.6&#10;&#9;&#9;&#9;&#9;c0-3.5,2.5-4.9,5.6-3.2L652.7,336.4z"/>
		</g>
		<g>
			<path fill="#B1D5EC" d="M652.7,309.7c3.1,1.8,5.5,6.1,5.5,9.6c0,3.5-2.5,4.9-5.6,3.2L473.5,219c-3.1-1.8-5.5-6.1-5.5-9.6&#10;&#9;&#9;&#9;&#9;c0-3.5,2.5-4.9,5.6-3.2L652.7,309.7z"/>
		</g>
		<path fill="#B1D5EC" d="M449.9,256.7l-47.1-27.2c-4.6-2.6-8.3-9.1-8.3-14.3l0.1-47.2c0-1.8,0.4-3.2,1.2-4.2&#10;&#9;&#9;&#9;c-1.7,0.8-2.7,2.7-2.7,5.5l-0.1,47.2c0,5.3,3.7,11.7,8.3,14.3l47.1,27.2c3,1.8,5.7,1.4,7.2-0.6C454,258.1,452,258,449.9,256.7z"/>
	</g>
	<g>
		<path fill="#6586CC" d="M1310.9,441.7L901.8,205.5c-10.3-5.9-18.6-1.2-18.7,10.6l-0.8,291.4c0,11.8,8.3,26.2,18.5,32.1&#10;&#9;&#9;&#9;l409.1,236.2c10.3,5.9,18.6,1.2,18.7-10.6l0.8-291.4C1329.5,462,1321.2,447.7,1310.9,441.7z"/>
		<path fill="#B1D5EC" d="M1334.6,470.9c0-11.8-8.3-26.2-18.5-32.1L906.9,202.6c-5.2-3-9.9-3.3-13.2-1.3l-5.1,3&#10;&#9;&#9;&#9;c3.4-2,8.1-1.7,13.2,1.3l409.1,236.2c10.3,5.9,18.6,20.3,18.5,32.1l-0.8,291.4l1.7-1l-1.7,1c0,5.9-2.1,10-5.4,11.9l5.1-3&#10;&#9;&#9;&#9;c3.3-1.9,5.4-6.1,5.4-11.9v0L1334.6,470.9z"/>
		<g>
			<path fill="#B1D5EC" d="M930.5,458.8c-0.8-0.5-1.2-0.2-1.2,0.7l0,15.3c0,1.3-0.6,1.1-1.6,0.5l-1.3-0.7c-1.4-0.8-1.7-1.4-1.6-2.9&#10;&#9;&#9;&#9;&#9;l0-3.5c0-0.9-0.3-1.5-1.2-2c-0.8-0.5-1.2-0.2-1.2,0.7l0,3.9c0,1.1,0.1,1.9,0.7,3.1c0.8,1.8,1.9,2.7,3.2,3.4l1.3,0.8&#10;&#9;&#9;&#9;&#9;c1.4,0.8,2.6,1,3.4,0c0.4-0.7,0.4-1.3,0.4-2.3l0-14.9C931.7,459.9,931.3,459.3,930.5,458.8z"/>
			<path fill="#B1D5EC" d="M946.6,470.3c-0.6-1.6-1.5-3.1-2.8-3.8c-1.3-0.8-2.3-0.4-2.8,0.6l-2.3,4c-0.4,0.8-0.6,1.5-0.6,2.6&#10;&#9;&#9;&#9;&#9;c0,1.3,0.3,2.3,0.8,3.6l2.1,6.1c0.6,1.6,1.5,3.1,2.8,3.9c1.3,0.8,2.3,0.4,2.8-0.6l2.2-3.7c0.5-0.8,0.8-1.5,0.8-2.7&#10;&#9;&#9;&#9;&#9;c0-1.1-0.2-2-0.6-3.3L946.6,470.3z M946.8,480.4l-2.2,3.8c-0.2,0.3-0.3,0.6-0.8,0.3c-0.5-0.3-0.6-0.8-0.8-1.3l-2.2-6.4&#10;&#9;&#9;&#9;&#9;c-0.3-0.7-0.4-1.3-0.4-2c0-0.9,0.2-1.3,0.5-1.9l2.1-3.6c0.2-0.3,0.3-0.6,0.8-0.3c0.5,0.3,0.6,0.7,0.8,1.3l2.1,6&#10;&#9;&#9;&#9;&#9;c0.3,1,0.5,1.6,0.5,2.5C947.2,479.6,947.1,480,946.8,480.4z"/>
			<path fill="#B1D5EC" d="M935.8,439.5c-1.1-0.7-1.5-0.1-1.5,0.9l0,7.1l-3-1.7l0.1-23.8l-7.6-4.4c-0.8-0.5-1.5-0.4-1.5,0.9&#10;&#9;&#9;&#9;&#9;c0,1.3,0.7,2.2,1.5,2.6l4.5,2.6l-0.1,20.3l-4.5-2.6c-0.8-0.5-1.5-0.4-1.5,0.9c0,1.3,0.7,2.2,1.5,2.6l12,7&#10;&#9;&#9;&#9;&#9;c0.8,0.5,1.5,0.4,1.5-0.9l0-8.9C937.4,441.2,937,440.2,935.8,439.5z"/>
			<path fill="#B1D5EC" d="M965.1,478.8c-0.8-0.5-1.2-0.2-1.2,0.7l0,7.7l-6.8-3.9l0-7.7c0-0.9-0.3-1.5-1.2-2&#10;&#9;&#9;&#9;&#9;c-0.8-0.5-1.2-0.2-1.2,0.7l-0.1,18.1c0,0.9,0.3,1.5,1.2,2c0.8,0.5,1.2,0.2,1.2-0.7l0-7.7l6.8,3.9l0,7.7c0,0.9,0.3,1.5,1.2,2&#10;&#9;&#9;&#9;&#9;c0.8,0.5,1.2,0.2,1.2-0.7l0.1-18.1C966.3,479.9,966,479.3,965.1,478.8z"/>
			<path fill="#B1D5EC" d="M981.9,488.5c-0.8-0.5-1.2-0.2-1.2,0.7l-0.1,14.8l-6-19.7l-3.1-1.8l-0.1,19.4c0,0.9,0.3,1.5,1.2,2&#10;&#9;&#9;&#9;&#9;c0.8,0.5,1.2,0.2,1.2-0.7l0.1-14.6l6,19.5l3.1,1.8l0.1-19.4C983,489.6,982.7,489,981.9,488.5z"/>
			<path fill="#B1D5EC" d="M1013.7,509.5c-0.8-2.3-1.7-3.6-3.5-4.7l-3.9-2.2c-0.7-0.4-1.4-0.4-1.4,0.6c0,1,0.6,1.7,1.4,2.2l0.9,0.5&#10;&#9;&#9;&#9;&#9;l0,15.4l-1.1-0.6c-0.6-0.3-1.2-0.3-1.2,0.7c0,1,0.6,1.7,1.2,2l3.9,2.2c1.8,1,2.9,1,3.7-0.4l2.1-3.6c0.4-0.7,0.7-1.5,0.7-2.5&#10;&#9;&#9;&#9;&#9;c0-1.2-0.2-2.1-0.7-3.5L1013.7,509.5z M1013.7,519.1l-2.1,3.6c-0.4,0.7-0.7,0.7-1.6,0.2l-0.4-0.3l0-15.4l0.3,0.2&#10;&#9;&#9;&#9;&#9;c0,0,0.1,0.1,0.1,0.1c1,0.5,1.2,0.7,1.6,2.1l1.9,5.6c0.3,1,0.6,1.6,0.6,2.5C1014.1,518.2,1013.9,518.6,1013.7,519.1z"/>
			<path fill="#B1D5EC" d="M981.4,474.7l0-6.7c0-1.4-0.2-2.6-1.2-4.1c1-0.4,1.2-1.3,1.2-2.7l0-6.7c0-2-1.3-4.3-3-5.3l-10.5-6.1&#10;&#9;&#9;&#9;&#9;c-0.8-0.5-1.5-0.4-1.5,0.9c0,1.3,0.7,2.2,1.5,2.6l10.5,6.1l0,5.8c0,2-0.7,2.2-1.5,1.7l-6-3.5c-0.8-0.5-1.5-0.4-1.5,0.9&#10;&#9;&#9;&#9;&#9;c0,1.3,0.7,2.2,1.5,2.6l6,3.5c0.9,0.5,1.5,1.5,1.5,3.4l0,5.8l-10.5-6.1c-0.8-0.5-1.5-0.4-1.5,0.9c0,1.3,0.7,2.2,1.5,2.6l10.5,6.1&#10;&#9;&#9;&#9;&#9;C980,477.5,981.4,476.7,981.4,474.7z"/>
			<path fill="#B1D5EC" d="M1030.3,518.6c-0.6-1.6-1.5-3.1-2.8-3.8c-1.3-0.7-2.3-0.4-2.8,0.6l-2.3,4c-0.4,0.8-0.6,1.5-0.6,2.6&#10;&#9;&#9;&#9;&#9;c0,1.3,0.3,2.3,0.8,3.6l2.1,6.1c0.6,1.6,1.5,3.1,2.8,3.9c1.4,0.8,2.3,0.4,2.8-0.6l2.2-3.7c0.5-0.8,0.8-1.5,0.8-2.7&#10;&#9;&#9;&#9;&#9;c0-1.1-0.2-2-0.6-3.3L1030.3,518.6z M1030.5,528.7l-2.2,3.8c-0.2,0.3-0.3,0.6-0.8,0.3c-0.5-0.3-0.6-0.8-0.8-1.3l-2.2-6.4&#10;&#9;&#9;&#9;&#9;c-0.3-0.7-0.4-1.3-0.4-2c0-0.9,0.2-1.3,0.5-1.9l2.1-3.6c0.2-0.3,0.3-0.6,0.8-0.3c0.5,0.3,0.6,0.7,0.8,1.3l2.1,6&#10;&#9;&#9;&#9;&#9;c0.3,1,0.5,1.6,0.5,2.5C1030.8,527.9,1030.7,528.3,1030.5,528.7z"/>
			<path fill="#B1D5EC" d="M1048.8,529.7c0.6,0.4,1.2,0.3,1.2-0.7c0-1-0.6-1.7-1.2-2l-10.3-6l-0.1,20.8l10.3,6&#10;&#9;&#9;&#9;&#9;c0.6,0.3,1.2,0.3,1.2-0.7c0-1-0.6-1.7-1.2-2l-8-4.6l0-6.4l3.4,2c0.6,0.4,1.2,0.3,1.2-0.7c0-1-0.6-1.7-1.2-2l-3.4-2l0-6.4&#10;&#9;&#9;&#9;&#9;L1048.8,529.7z"/>
			<path fill="#B1D5EC" d="M1023.9,501l0-7.2c0.8,0.5,1.5,0.4,1.5-0.9c0-1.3-0.7-2.2-1.5-2.6l0-10.2c0-0.9-0.4-2-1.5-2.6&#10;&#9;&#9;&#9;&#9;c-1.2-0.7-1.5,0-1.5,0.9l0,10.2l-5.9-3.4l0-13.1c0-0.9-0.4-2-1.5-2.6c-1.2-0.7-1.5,0-1.5,0.9l0,16.7l9,5.2l0,7.2&#10;&#9;&#9;&#9;&#9;c0,1.1,0.4,2,1.5,2.6C1023.4,502.5,1023.9,502.1,1023.9,501z"/>
			<path fill="#B1D5EC" d="M1046.7,514.7c0.6-0.5,0.7-1.2,0.7-2.3l0-7.5c0-1.2-0.1-2.1-0.9-3.5c-0.7-1.2-1.5-1.8-2.4-2.4l-5.6-3.2&#10;&#9;&#9;&#9;&#9;l0-8.4l7.5,4.3c0.8,0.5,1.5,0.4,1.5-0.9c0-1.3-0.7-2.2-1.5-2.6l-10.6-6.1l0,15.4l9,5.2l0,8.4l-7.1-4.1c-0.5-0.3-1.2-1.2-1.6-1.6&#10;&#9;&#9;&#9;&#9;l-0.9-1c-0.3-0.4-0.6-0.6-1-0.8c-0.8-0.5-1.5,0-1.5,0.9c0,1.2,0.9,2.1,1.7,3l1.2,1.3c0.8,0.8,1.2,1.3,2,1.8l6.8,3.9&#10;&#9;&#9;&#9;&#9;C1045.1,515,1045.9,515.4,1046.7,514.7z"/>
			<path fill="#B1D5EC" d="M1067.6,515.6l-10.2-5.9l0-11.4c0.9,0.5,1.5,0.2,1.5-0.9c0-0.9-0.6-2.1-1.4-2.6l-1.8-1.1&#10;&#9;&#9;&#9;&#9;c-1.1-0.6-1.3,0.2-1.3,1l-0.1,23.4c0,1.6,0.5,2.5,2,3.4l11.1,6.4c1.4,0.8,2,0.6,2-1.1l0-7.9&#10;&#9;&#9;&#9;&#9;C1069.5,517.4,1069.2,516.5,1067.6,515.6z M1066.4,523.8l-9-5.2l0-5.4l9,5.2L1066.4,523.8z"/>
			<path fill="#B1D5EC" d="M1098.4,520.2l0,1.8c0,0.8,0.5,2.1,1.5,2.6c1,0.6,1.5-0.1,1.5-0.9l9,5.2l0,4.8c0,1.5,0.1,1.5-1,2&#10;&#9;&#9;&#9;&#9;l-4.2,1.7c-0.8,0.3-0.8,0.4-0.8,1.6l0,8.5c0,1.1,0.4,2,1.5,2.6c1.1,0.6,1.5,0.2,1.5-0.9l0-6.8c0-1.2,0.1-1.3,0.9-1.6l4.3-1.8&#10;&#9;&#9;&#9;&#9;c0.9-0.4,0.8-0.5,0.8-1.7l0-10.2l-13.6-7.8C1099,518.8,1098.4,519.4,1098.4,520.2z"/>
			<path fill="#B1D5EC" d="M1132.5,550l0-10.2c0-0.9-0.5-2-1.5-2.6l-5.9-3.4c-1-0.6-1.5,0-1.5,0.9l0,10.2c-0.9-0.5-1.7-0.6-2.2-0.3&#10;&#9;&#9;&#9;&#9;c-0.6,0.3-0.8,1-0.8,2.1l0,8.4c0,2.1,1.2,4.2,3,5.3l9,5.2c1.9,1.1,3.1,0.4,3.1-1.8l0-8.4c0-1.1-0.3-2.1-0.8-3&#10;&#9;&#9;&#9;&#9;C1134.2,551.4,1133.4,550.6,1132.5,550z M1126.6,538.2l2.9,1.7l0,8.4l-2.9-1.7L1126.6,538.2z M1132.4,561.9l-9-5.2l0-8.4l9,5.2&#10;&#9;&#9;&#9;&#9;L1132.4,561.9z"/>
			<path fill="#B1D5EC" d="M1156.1,551.7l-12-7c-0.9-0.5-1.5,0-1.5,0.9l0,9c0,0.9,0.7,2.1,1.5,2.6l10.5,6.1l0,11.3&#10;&#9;&#9;&#9;&#9;c-0.9-0.5-1.5-0.2-1.5,0.9c0,0.9,0.6,2.1,1.5,2.6l1.5,0.9c0.9,0.5,1.5,0.1,1.5-0.9l0.1-23.8&#10;&#9;&#9;&#9;&#9;C1157.6,553.4,1156.9,552.2,1156.1,551.7z M1154.5,559.8l-9-5.2l0-5.5l9,5.2L1154.5,559.8z"/>
			<path fill="#B1D5EC" d="M1176.5,563.5l-9-5.2c-1.7-1-3.1-0.2-3.1,1.7l-0.1,20.3c0,2,1.3,4.3,3,5.3l9,5.2c1.7,1,3.1,0.2,3.1-1.7&#10;&#9;&#9;&#9;&#9;l0.1-20.3C1179.6,566.9,1178.2,564.5,1176.5,563.5z M1176.5,587.3l-9-5.2l0.1-20.3l9,5.2L1176.5,587.3z"/>
			<path fill="#B1D5EC" d="M959.3,463.8c0-1.3-0.7-2.2-1.5-2.6l-10.5-6.1l0-8.4l8.6,5c1,0.6,1.7,0.8,2.5,0.4c0.9-0.4,1-1.3,1-2.6&#10;&#9;&#9;&#9;&#9;l0-7.2c0-1.3-0.1-2.3-0.9-3.7c-0.8-1.2-1.5-1.8-2.5-2.4l-10.2-5.9c-0.8-0.5-1.5-0.4-1.5,0.9c0,1.3,0.7,2.2,1.5,2.6l10.5,6.1&#10;&#9;&#9;&#9;&#9;l0,8.4l-8.6-5c-2.3-1.3-3.5-0.7-3.5,2l0,11.5l13.6,7.8C958.6,465.1,959.3,465,959.3,463.8z"/>
		</g>
		<g>
			<path fill="#B1D5EC" d="M1224.8,623.7c7.3,4.2,14.1,11.1,19.3,19c-6.6,2.4-10.8,9.3-10.9,19.7c0,10.4,4.1,22.2,10.7,32.2&#10;&#9;&#9;&#9;&#9;c-5.2,1.9-12,1-19.3-3.3c-16.6-9.6-30-32.5-30-51.2C1194.7,621.4,1208.2,614.1,1224.8,623.7z"/>
		</g>
		<g>
			<path fill="#4C74C2" d="M1263.4,645.9c16.6,9.6,30,32.5,30,51.2c-0.1,18.7-13.6,26-30.2,16.4c-7.3-4.2-14.1-11.1-19.3-19&#10;&#9;&#9;&#9;&#9;c-6.6-10-10.8-21.8-10.7-32.2c0-10.4,4.3-17.3,10.9-19.7C1249.3,640.8,1256.1,641.7,1263.4,645.9z"/>
		</g>
		<g>
			<path fill="#B1D5EC" d="M994.7,351.5c7.6,4.4,13.7,14.9,13.6,23.6l-0.1,49.3c0,8.7-6.2,12.2-13.7,7.8l-63.4-36.6&#10;&#9;&#9;&#9;&#9;c-7.6-4.4-13.7-14.9-13.6-23.6l0.1-49.3c0-8.7,6.2-12.2,13.7-7.8L994.7,351.5z"/>
		</g>
		<g>
			<path d="M 1204.5999755859375 443.8999938964844 L 1217.699951171875 451.5 L 1218.800048828125 446.5 L 1211.5999755859375 442.29998779296875 L 1212.4000244140625 438.1000061035156 L 1219.0999755859375 441.8999938964844 L 1220.199951171875 437.1000061035156 L 1213.5 433.20001220703125 L 1214.300048828125 429.6000061035156 L 1221.5 433.79998779296875 L 1222.5 428.79998779296875 L 1209.4000244140625 421.29998779296875 Z" fill="#4C74C2"/>
			<path fill="#4C74C2" d="M1232.3,454.7c-1.1-0.6-1.9-1.5-2.4-2.6c-0.6-1.1-0.8-2.4-0.8-4c0-1.9,0.3-3.4,0.8-4.7&#10;&#9;&#9;&#9;&#9;c0.5-1.3,1.2-2.1,2.1-2.5c0.9-0.4,1.9-0.3,2.9,0.3c0.8,0.5,1.7,1.1,2.4,1.9c0.8,0.8,1.6,1.7,2.6,2.9l2.3-4&#10;&#9;&#9;&#9;&#9;c-2.2-2.8-4.6-4.9-7.3-6.5c-2.3-1.3-4.3-1.8-6-1.5c-1.8,0.3-3.2,1.4-4.2,3.4c-1,2-1.5,4.5-1.6,7.6c0,3.1,0.7,6,2.1,8.5&#10;&#9;&#9;&#9;&#9;c1.4,2.5,3.4,4.6,6,6.1c2.4,1.4,4.6,2.1,6.6,2.3l0-5.6c-1.2-0.1-2.2-0.3-3-0.5C1234,455.5,1233.2,455.1,1232.3,454.7z"/>
			<path fill="#4C74C2" d="M1250.4,445l-11.3,18.9l6.1,3.5l1.9-3.7l6.8,3.9l0.1,4.8l5.8,3.3l-1.8-26.4L1250.4,445z M1249.3,459.6&#10;&#9;&#9;&#9;&#9;l3.3-6.4c0.4-0.7,0.7-1.5,0.9-2.3c0,0.6-0.1,1.4-0.1,2.2l0,1.5l0.2,7.5L1249.3,459.6z"/>
			<path fill="#4C74C2" d="M1280.8,469.5c0-2.3-0.7-4.5-2-6.4c-1.3-1.9-3.3-3.6-5.8-5.1l-5.8-3.4l-4.7,22.7l5.9,3.4l1.7-8.2l1.1,0.6&#10;&#9;&#9;&#9;&#9;l2.9,10.9l6.4,3.7l-0.6-2l-3.4-10.9c1.4,0.1,2.5-0.3,3.2-1.2C1280.4,472.6,1280.8,471.3,1280.8,469.5z M1274,468.6&#10;&#9;&#9;&#9;&#9;c-0.6,0.3-1.3,0.2-2.3-0.4l-0.8-0.4l1.1-5.2l0.8,0.5c0.7,0.4,1.2,0.9,1.5,1.4c0.3,0.6,0.5,1.2,0.5,1.9&#10;&#9;&#9;&#9;&#9;C1274.9,467.6,1274.6,468.3,1274,468.6z"/>
			<path fill="#4C74C2" d="M1299.9,476.1c-1.5-2.6-3.7-4.6-6.4-6.2l-6.3-3.6l-4.7,22.7l7.1,4.1c2.6,1.5,4.8,2.2,6.7,2&#10;&#9;&#9;&#9;&#9;c1.9-0.2,3.4-1.1,4.4-2.9c1-1.8,1.5-4.3,1.5-7.6C1302.2,481.4,1301.4,478.6,1299.9,476.1z M1295.5,486.1c-0.5,1.2-1.2,2-2,2.3&#10;&#9;&#9;&#9;&#9;c-0.9,0.3-1.9,0.1-3-0.5l-1-0.6l2.6-12.7l1.1,0.6c1,0.6,1.7,1.4,2.3,2.4c0.5,1.1,0.8,2.3,0.8,3.8&#10;&#9;&#9;&#9;&#9;C1296.2,483.3,1296,484.9,1295.5,486.1z"/>
		</g>
	</g>
</g>
</svg>